# xmcd CD database file
#
# Track frame offsets:
#	180
#	19305
#	39026
#	56121
#	75086
#	96745
#	116089
#	131842
#	155232
#	177657
#	199782
#	216423
#	234425
#	248823
#
# Disc length: 3513 seconds
#
# Revision: 0
# Processed by: cddbd v1.5.2PL0 Copyright (c) Steve Scherf et al.
# Submitted via: CDex 1.51
#
DISCID=ca0db70e
DTITLE=Grammy Various Artists - ธ สถิตในดวงใจนิรันดร์ 2
DYEAR=1900
DGENRE=Jazz
TTITLE0=Love At Sundown
TTITLE1=Blue Day
TTITLE2=Echo
TTITLE3=Still On My Mind
TTITLE4=Candlelight Blues
TTITLE5=Old Fashioned Melody
TTITLE6=Lai Kram Goes Dixie
TTITLE7=Never Mind the Hungry Men's Blues
TTITLE8=Twilight
TTITLE9=A Love Story
TTITLE10=The Colours March
TTITLE11=Royal Guards March
TTITLE12=Royal Marines March
TTITLE13=We -Infantry Regiment 21
EXTD=
EXTT0=
EXTT1=
EXTT2=
EXTT3=
EXTT4=
EXTT5=
EXTT6=
EXTT7=
EXTT8=
EXTT9=
EXTT10=
EXTT11=
EXTT12=
EXTT13=
PLAYORDER=
